# xmcd
#
# Track frame offsets: 
#        150
#        17957
#        29040
#        42122
#        59100
#        70842
#        87050
#        103427
#        122210
#        139325
#        156050
#        171767
#        189350
#        206022
#
# Disc length: 2953 seconds
#
# Revision: 1
# Processed by: cddbd v1.5.2PL0 Copyright (c) Steve Scherf et al.
# Submitted via: ExactAudioCopy v0.95b3
#
DISCID=d00b870e
DTITLE=Django Reinhardt - Django - The Unforgettable
DYEAR=1960
DGENRE=Jazz Manouche
TTITLE0=Sweet Georgia Brown
TTITLE1=Minor Swing
TTITLE2=Double Scotch
TTITLE3=Artillerie Lourde
TTITLE4=Saint James Infirmary
TTITLE5="C" Jam Blues
TTITLE6=Honeysuckle Rose
TTITLE7=Dream of You
TTITLE8=Begin the Beguine
TTITLE9=How High the Moon
TTITLE10=Nuages
TTITLE11=I Can't Get Started
TTITLE12=I Can't Give You Anything but Love
TTITLE13=Manoir de Mes Reves
EXTD=Tracks 1-7 recorded at RAI Studios, Rome IT-RM, 1950-04/05.\nDjan
EXTD=go Reinhardt: guitar\nAndré Ekyan: alto sax, clarinet\nRalph [Rap
EXTD=h(aël)] Schecroun [AKA, Errol Parker]: piano\nAlf Masselier: bass
EXTD=\nRoger Paraboschi: drums\n\nTracks 8-14 recorded at RAI Studios,
EXTD=Rome IT-RM, 1949-01/02.\nDjango Reinhardt: guitar\nStéphane Grap
EXTD=pelli: violin\nGianni Safred: piano\nCarlo Pecori: bass\nAurelio 
EXTD=de Carolis: drums\n\nPreviously released as HMV CLP-1389 (1960).\n
EXTD=Here, reissued as disc 2 of the 2CD 2-fer "The Art of Django - Dj
EXTD=ango - The Unforgettable".\n2CD: BGO Records BGOCD198 (1993-11-15
EXTD=), EAN 5017261201980.
EXTT0=
EXTT1=
EXTT2=
EXTT3=
EXTT4=
EXTT5=
EXTT6=
EXTT7=
EXTT8=
EXTT9=
EXTT10=
EXTT11=
EXTT12=
EXTT13=
PLAYORDER=
